<svg xmlns="http://www.w3.org/2000/svg" width="21.991" height="21.991" viewBox="0 0 21.991 21.991">
  <path id="Path_28" data-name="Path 28" d="M184.246,56.24a10.3,10.3,0,0,0-2.627-1.645.859.859,0,1,0-.7,1.57,8.589,8.589,0,0,1,2.191,1.365,3.425,3.425,0,0,1,1.16,2.575v1.589a.86.86,0,0,1-.859.859H166.577a.86.86,0,0,1-.859-.859V60.1a3.425,3.425,0,0,1,1.16-2.575c.868-.763,3.4-2.537,8.117-2.537a6.364,6.364,0,1,0-3.872-1.319,11.943,11.943,0,0,0-5.379,2.565A5.144,5.144,0,0,0,164,60.1v1.589a2.58,2.58,0,0,0,2.577,2.577h16.837a2.58,2.58,0,0,0,2.577-2.577V60.1a5.143,5.143,0,0,0-1.744-3.865Zm-13.89-7.6A4.639,4.639,0,1,1,175,53.275a4.644,4.644,0,0,1-4.639-4.639Zm0,0" transform="translate(-164 -42.28)" fill="#fff"/>
</svg>
