<svg xmlns="http://www.w3.org/2000/svg" width="19.707" height="22.522" viewBox="0 0 19.707 22.522">
  <path id="Path_26" data-name="Path 26" d="M178.768,188.034h-.938v-2.815a.938.938,0,0,0-.938-.938H162.815A2.819,2.819,0,0,0,160,187.094v16.892a2.819,2.819,0,0,0,2.815,2.815h15.953a.938.938,0,0,0,.938-.938V188.972a.938.938,0,0,0-.938-.938Zm-15.953-1.877h13.138v1.877H162.815a.938.938,0,1,1,0-1.877Zm15.015,18.768H162.815a.939.939,0,0,1-.938-.938V189.75a2.824,2.824,0,0,0,.938.16h1.877v11.5a.7.7,0,0,0,1.074.6l2.68-1.65,2.68,1.65a.7.7,0,0,0,1.074-.6v-11.5h5.63Zm0,0" transform="translate(-160 -184.28)" fill="#fff"/>
</svg>
