<svg xmlns="http://www.w3.org/2000/svg" xmlns:xlink="http://www.w3.org/1999/xlink" width="199.721" height="169.972" viewBox="0 0 199.721 169.972">
  <defs>
    <clipPath id="clip-path">
      <path id="Path_534" data-name="Path 534" d="M154.618,163.8v-54.06c0-13.81,36.072-26.677,49.882-26.677a25.073,25.073,0,0,1,25.045,25.045v54.06Z" transform="translate(-154.618 -83.064)" fill="none"/>
    </clipPath>
  </defs>
  <g id="Group_505" data-name="Group 505" transform="translate(-130.178 -29.286)">
    <path id="Path_489" data-name="Path 489" d="M218.18,42.637c-21.776,16.411-34.257,59-70.567,81.61-28.55,17.776-18.584,57.639,5.118,63.564,19,4.751,58.123-.5,84.842,3.771,33.667,5.387,64.1,6.464,77.839-12.12,13.857-18.748,19.123-46.326-2.963-70.567-22.306-24.482-7-37.977-21.816-58.716C281.513,37.412,255.349,14.626,218.18,42.637Z" transform="translate(0 0)" fill="#ffdc00"/>
    <g id="Group_504" data-name="Group 504" transform="translate(140.052 39.27)">
      <g id="Group_503" data-name="Group 503" transform="translate(0)">
        <g id="Group_502" data-name="Group 502">
          <path id="Path_490" data-name="Path 490" d="M387.221,264.1V321.5H358.165V234.4h12.692v27.593Z" transform="translate(-275.93 -161.516)" fill="#e67840"/>
          <path id="Path_491" data-name="Path 491" d="M405.945,304.8v57.408H389.581V302.7Z" transform="translate(-294.654 -202.22)" fill="#e98f60"/>
          <path id="Path_492" data-name="Path 492" d="M405.945,234.4v29.7l-16.364-2.1V234.4Z" transform="translate(-294.654 -161.516)" fill="#e57442"/>
          <path id="Path_493" data-name="Path 493" d="M370.857,234.4v27.593l-.29-.039-12.4-13.259V234.4Z" transform="translate(-275.93 -161.516)" fill="#db5e26"/>
          <path id="Path_494" data-name="Path 494" d="M337.167,103.492v42.03a7.179,7.179,0,0,1-7.037,7.309H212.568V103.492C212.568,88.31,224.416,76,239.035,76h71.657a25.569,25.569,0,0,1,5.764.654,27.152,27.152,0,0,1,20.538,23.7A27.6,27.6,0,0,1,337.167,103.492Z" transform="translate(-189.156 -67.114)" fill="#8ad5ff"/>
          <path id="Path_495" data-name="Path 495" d="M330.128,248.328H212.565v2.852H330.128a7.178,7.178,0,0,0,7.037-7.309v-2.852A7.178,7.178,0,0,1,330.128,248.328Z" transform="translate(-189.154 -165.462)" fill="#69b1e2"/>
          <path id="Path_496" data-name="Path 496" d="M415.013,140.6v26.382h-71.83v-29.4h71.659A26.38,26.38,0,0,1,415.013,140.6Z" transform="translate(-267.001 -103.814)" fill="#69b1e2"/>
          <path id="Path_497" data-name="Path 497" d="M471.232,100.36c-1.5-13.707-12.7-24.356-26.3-24.356H437.8c13.6,0,24.806,10.649,26.3,24.356a28.447,28.447,0,0,1,.171,3.132v42.031a7.178,7.178,0,0,1-7.038,7.309h7.13a7.178,7.178,0,0,0,7.037-7.309V103.492A28.455,28.455,0,0,0,471.232,100.36Z" transform="translate(-323.391 -67.114)" fill="#8ad5ff" opacity="0.25" style="mix-blend-mode: multiply;isolation: isolate"/>
          <circle id="Ellipse_243" data-name="Ellipse 243" cx="6.837" cy="6.837" r="6.837" transform="translate(80.522 49.148) rotate(-76.815)" fill="#44a3d8"/>
          <path id="Path_498" data-name="Path 498" d="M408.07,80.953A5.826,5.826,0,0,1,400.3,82l-1.732-1.156a1.291,1.291,0,0,0-1.793.355L373.089,113.13l-4.763-3.186L391.034,76h12.488a25.568,25.568,0,0,1,5.764.654A5.689,5.689,0,0,1,408.07,80.953Z" transform="translate(-281.986 -67.114)" fill="#44a3d8"/>
          <path id="Path_499" data-name="Path 499" d="M404.657,57.351l-3.121-2.088a7.474,7.474,0,0,0-10.369,2.056l-1.2,1.788-.991,1.482-22.8,34.076,6.371,4.262,22.078-33a1.293,1.293,0,0,1,1.793-.356l1.732,1.159a5.83,5.83,0,0,0,7.768-1.052A5.705,5.705,0,0,0,404.657,57.351Z" transform="translate(-280.708 -54)" fill="#ff6700"/>
          <path id="Path_500" data-name="Path 500" d="M389.217,63.017l.991-1.481,1.721-2.573a6.53,6.53,0,0,1,9.059-1.8l3.906,2.613a5.674,5.674,0,0,1,2.255,3.005,5.7,5.7,0,0,0-2.492-5.382l-3.046-2.038a7.565,7.565,0,0,0-10.495,2.081l-1.146,1.713-.991,1.482-22.8,34.076,1.263.845Z" transform="translate(-280.708 -54.052)" fill="#ff7e27"/>
          <circle id="Ellipse_244" data-name="Ellipse 244" cx="6.837" cy="6.837" r="6.837" transform="matrix(0.159, -0.987, 0.987, 0.159, 80.25, 48.953)" fill="#005eb2"/>
          <path id="Path_501" data-name="Path 501" d="M356.778,151.76a6.834,6.834,0,0,1,10.028-6.044,6.833,6.833,0,1,0-7.43,11.4A6.817,6.817,0,0,1,356.778,151.76Z" transform="translate(-274.48 -107.781)" fill="#027ad3"/>
          <circle id="Ellipse_245" data-name="Ellipse 245" cx="2.614" cy="2.614" r="2.614" transform="translate(85.907 41.112)" fill="#005391"/>
          <circle id="Ellipse_246" data-name="Ellipse 246" cx="2.614" cy="2.614" r="2.614" transform="translate(85.474 40.679)" fill="#ff6700"/>
          <path id="Path_502" data-name="Path 502" d="M366.575,157.7a2.613,2.613,0,0,1,4.255-2.034,2.613,2.613,0,1,0-3.675,3.675A2.6,2.6,0,0,1,366.575,157.7Z" transform="translate(-280.708 -114.009)" fill="#ff7e27"/>
          <path id="Path_503" data-name="Path 503" d="M209.035,152.832V103.9a27.9,27.9,0,1,1,55.794,0v48.931Z" transform="translate(-187.05 -67.114)" fill="#69b1e2"/>
          <path id="Rectangle_1477" data-name="Rectangle 1477" d="M26.471,0h0A26.471,26.471,0,0,1,52.942,26.471V73.976a0,0,0,0,1,0,0H0a0,0,0,0,1,0,0V26.471A26.471,26.471,0,0,1,26.471,0Z" transform="translate(23.411 10.316)" fill="#78cbf9"/>
          <path id="Path_504" data-name="Path 504" d="M266.183,108.108v46.083H216.094V108.108a25.044,25.044,0,0,1,50.089,0Z" transform="translate(-191.257 -71.323)" fill="#4e72bd"/>
          <line id="Line_1" data-name="Line 1" x2="50.088" transform="translate(24.837 82.798)" fill="#4e72bd"/>
          <path id="Path_505" data-name="Path 505" d="M197.278,262.647h51.066L233.09,284.364a41.245,41.245,0,0,1-33.775,17.381h0c-12.5,0-19.876-13.7-12.8-23.774Z" transform="translate(-171.987 -178.352)" fill="#8ad5ff"/>
          <path id="Path_506" data-name="Path 506" d="M201.261,302.363a14.027,14.027,0,0,1-12.565-7.416,13.414,13.414,0,0,1,.859-14.324l10.367-14.761h47.842l-13.824,19.683A39.9,39.9,0,0,1,201.261,302.363Z" transform="translate(-173.933 -180.268)" fill="#69b1e2"/>
          <path id="Path_507" data-name="Path 507" d="M204.587,317.045a14.712,14.712,0,0,1-13.179-7.778,14.02,14.02,0,0,1,.094-13.727l-1.946,2.771a13.414,13.414,0,0,0-.859,14.324,14.027,14.027,0,0,0,12.565,7.416,40.148,40.148,0,0,0,26.392-9.838A42.233,42.233,0,0,1,204.587,317.045Z" transform="translate(-173.933 -197.956)" fill="#598dea" opacity="0.25" style="mix-blend-mode: multiply;isolation: isolate"/>
          <g id="Group_501" data-name="Group 501" transform="translate(0 11.742)">
            <g id="Group_500" data-name="Group 500" clip-path="url(#clip-path)">
              <path id="Path_508" data-name="Path 508" d="M289.252,161.823l4.625-21.736c.02-.093.038-.18.051-.274.014-.126.022-.251.029-.377.008-.063.011-.206.011-.315a.452.452,0,0,0,.149-.366,4.394,4.394,0,0,0-.335-1.541c-.074-.135-.155-.265-.244-.4a4.037,4.037,0,0,0-.613-.711c-.115-.11-.238-.215-.363-.312a4.224,4.224,0,0,0-.715-.441,2.191,2.191,0,0,0-.285-.134,2.862,2.862,0,0,0-.331-.124,1.381,1.381,0,0,0-.157-.049,2.311,2.311,0,0,0-.3-.081l-52-11.775c-.118-.027-.238-.047-.35-.065a2.92,2.92,0,0,0-.342-.036,1.578,1.578,0,0,0-.181-.006.01.01,0,0,0-.014,0,1.453,1.453,0,0,0-.241,0,1.226,1.226,0,0,0-.235.01,1.011,1.011,0,0,0-.118.008,1.459,1.459,0,0,0-.164.019,1.578,1.578,0,0,0-.174.03c-.029,0-.053.009-.082.009-.085.023-.168.039-.253.061-.046.011-.085.023-.131.033l-.063.021c-.078.024-.157.055-.235.079l-.071.026c-.08.031-.16.068-.233.1a2.59,2.59,0,0,0-.245.126.4.4,0,0,0-.092.056,3.215,3.215,0,0,0-1.491,1.866,13.8,13.8,0,0,0-.251,2.783q-.176,2.081-.349,4.162-.2,2.454-.408,4.907t-.405,4.892q-.17,2.058-.34,4.116-.107,1.29-.213,2.579a3.937,3.937,0,0,1-.04.493,4.366,4.366,0,0,0,3.413,5.076l48.623,10.419c.118.027.231.045.343.064a2.19,2.19,0,0,0,.221.022,2.286,2.286,0,0,0,.316.023,4.25,4.25,0,0,0,.431-.007,3.145,3.145,0,0,0,.373-.041,4.349,4.349,0,0,0,1.11-.321,2.214,2.214,0,0,0,.227-.109,1.574,1.574,0,0,0,.265-.149c.084-.051.167-.1.246-.16a1.986,1.986,0,0,0,.236-.184,3.748,3.748,0,0,0,.429-.405c.057-.064.116-.134.173-.2,0-.013.011-.018.021-.03A3.862,3.862,0,0,0,289.252,161.823Z" transform="translate(-200.718 -106.91)" fill="#ff6700" opacity="0.25" style="mix-blend-mode: multiply;isolation: isolate"/>
              <g id="Group_497" data-name="Group 497" transform="translate(30.838 16.182)">
                <path id="Path_509" data-name="Path 509" d="M296.052,139.581l-4.736,22.808a4.248,4.248,0,0,1-.781,1.724c-.01.013-.018.018-.021.032-.058.068-.117.143-.175.211a3.961,3.961,0,0,1-.433.435,2.065,2.065,0,0,1-.238.2,3,3,0,0,1-.248.175,1.65,1.65,0,0,1-.267.163,2.2,2.2,0,0,1-.229.12,4.349,4.349,0,0,1-1.117.365,3.038,3.038,0,0,1-.375.053,4.044,4.044,0,0,1-.434.019,2.163,2.163,0,0,1-.317-.015,1.959,1.959,0,0,1-.222-.017c-.113-.016-.226-.032-.345-.057l-51.662-10.727a4.4,4.4,0,0,1-3.413-5.2l4.735-22.8c.02-.1.039-.189.067-.285l.01-.013a3.116,3.116,0,0,1,.227-.6c-.005-.008,0-.007,0-.014.013-.027.027-.06.04-.086a4.086,4.086,0,0,1,.415-.7c.061-.082.12-.157.187-.238s.133-.147.2-.221a4.5,4.5,0,0,1,.439-.4,4.224,4.224,0,0,1,.8-.5,4.361,4.361,0,0,1,2.819-.354l51.662,10.728a4.408,4.408,0,0,1,3.392,3.34c0,.007.006.008,0,.015a4.5,4.5,0,0,1,.1.792.575.575,0,0,1,0,.109,3.833,3.833,0,0,1-.027.657C296.091,139.393,296.073,139.484,296.052,139.581Z" transform="translate(-230.948 -123.38)" fill="#ed7407"/>
                <path id="Path_510" data-name="Path 510" d="M290.536,165.517c-.01.013-.018.018-.021.032-.058.068-.117.143-.175.211a3.959,3.959,0,0,1-.433.435,2.064,2.064,0,0,1-.238.2,3,3,0,0,1-.248.175c-.086.062-.175.109-.267.163a2.2,2.2,0,0,1-.229.12,4.348,4.348,0,0,1-1.117.365,3.041,3.041,0,0,1-.375.053,4.044,4.044,0,0,1-.434.019,2.165,2.165,0,0,1-.317-.015,1.959,1.959,0,0,1-.222-.017c-.113-.016-.226-.032-.345-.057l-51.662-10.727a4.4,4.4,0,0,1-3.413-5.2l4.735-22.8c.02-.1.039-.189.067-.285l.01-.013a3.116,3.116,0,0,1,.227-.6c-.005-.008,0-.007,0-.014.013-.027.027-.06.04-.086a4.086,4.086,0,0,1,.415-.7c.061-.082.12-.157.187-.238s.133-.147.2-.221a4.5,4.5,0,0,1,.439-.4c0,.007-.01.013-.013.027a4.093,4.093,0,0,0-.415.7,3.688,3.688,0,0,0-.269.7l-.01.013a2.057,2.057,0,0,0-.049.2l-4.752,22.885a4.4,4.4,0,0,0,3.413,5.2l51.662,10.728A4.386,4.386,0,0,0,290.536,165.517Z" transform="translate(-230.948 -124.784)" fill="#ffdc00"/>
                <path id="Path_511" data-name="Path 511" d="M303.693,137.92a.5.5,0,0,1-.343.512l-.53.18L272.3,148.974l-.454.154-2.021.687-1.936-1.757-.074-.066-23.906-21.684-.1-.095-.257-.236a.478.478,0,0,1-.076-.088c-.013-.01-.017-.025-.029-.035a.627.627,0,0,1-.084-.248c0-.019-.006-.037-.008-.056a.623.623,0,0,1,.03-.226c0-.014,0-.029.006-.042a.627.627,0,0,1,.057-.1c.01-.013.013-.027.021-.032.052-.077.1-.153.155-.223a.27.27,0,0,1,.051-.07c.059-.075.119-.15.185-.224s.142-.16.216-.232a.006.006,0,0,1,.008-.005c.075-.079.155-.15.236-.221a1.931,1.931,0,0,1,.191-.15,2.961,2.961,0,0,1,.349-.241.4.4,0,0,1,.092-.061,2.592,2.592,0,0,1,.247-.138c.073-.036.154-.077.234-.112l.071-.029c.079-.027.158-.062.237-.089l.063-.023c.046-.012.086-.026.132-.038.086-.026.17-.045.255-.071.03,0,.053-.01.083-.012a1.551,1.551,0,0,1,.175-.036,1.421,1.421,0,0,1,.165-.024,1.079,1.079,0,0,1,.119-.012,1.237,1.237,0,0,1,.237-.017,1.431,1.431,0,0,1,.242-.008.01.01,0,0,1,.014,0,1.6,1.6,0,0,1,.182,0,2.774,2.774,0,0,1,.344.028c.113.016.233.034.352.059l52.248,10.849a2.241,2.241,0,0,1,.3.076,1.2,1.2,0,0,1,.158.048,2.73,2.73,0,0,1,.332.12,2.166,2.166,0,0,1,.286.132,4.037,4.037,0,0,1,.717.44,4.733,4.733,0,0,1,.364.316,3.986,3.986,0,0,1,.614.725c.089.135.17.268.243.407A4.643,4.643,0,0,1,303.693,137.92Z" transform="translate(-238.342 -123.116)" fill="#dbeff6"/>
                <path id="Path_512" data-name="Path 512" d="M303.22,139.453l-31.151,10.579-.454.153-2.938,1-1.612-1.463-.2-.181-23.487-21.313-.539-.49.025-.119c.02-.1.039-.189.067-.285l.01-.013a3.116,3.116,0,0,1,.227-.6c-.005-.008,0-.007,0-.014.013-.027.027-.06.04-.086a4.086,4.086,0,0,1,.415-.7c.061-.082.12-.157.187-.238s.133-.147.2-.221a4.5,4.5,0,0,1,.439-.4,4.223,4.223,0,0,1,.8-.5,4.526,4.526,0,0,1,1.707.02L299.2,135.428a4.428,4.428,0,0,1,3.219,2.7c0,.007.006.008,0,.015a4.515,4.515,0,0,1,.1.792c.01.162.725-.087.713.078C303.234,139.109,303.232,139.361,303.22,139.453Z" transform="translate(-238.033 -123.934)" fill="#b75b00"/>
                <path id="Path_513" data-name="Path 513" d="M303.521,138.373l-.705.24L272.3,148.974l-.454.154-2.021.687-1.936-1.757-.074-.066-23.906-21.684-.1-.095-.257-.236a.478.478,0,0,1-.076-.088c-.013-.01-.017-.025-.029-.035a.633.633,0,0,1,0-.67c.01-.013.013-.027.021-.032.052-.077.1-.153.155-.223a.27.27,0,0,1,.051-.07c.059-.075.119-.15.185-.224s.142-.16.216-.232a.006.006,0,0,1,.008-.005c.075-.079.155-.15.236-.221a1.93,1.93,0,0,1,.191-.15,4.1,4.1,0,0,1,.349-.241c.1-.059.191-.113.289-.166s.2-.1.3-.142.206-.081.308-.118.212-.073.32-.1c.062-.017.13-.031.2-.046a1.551,1.551,0,0,1,.175-.036c.082-.012.165-.024.246-.029.015,0,.024-.01.038-.007a1.237,1.237,0,0,1,.237-.017,1.431,1.431,0,0,1,.242-.008.01.01,0,0,1,.014,0,1.6,1.6,0,0,1,.182,0,2.774,2.774,0,0,1,.344.028c.113.016.233.034.352.059l52.248,10.849a2.24,2.24,0,0,1,.3.076,1.2,1.2,0,0,1,.158.048,2.73,2.73,0,0,1,.332.12,2.166,2.166,0,0,1,.286.132,4.038,4.038,0,0,1,.717.44,4.733,4.733,0,0,1,.364.316,3.987,3.987,0,0,1,.614.725c.089.135.17.268.243.407A4.934,4.934,0,0,1,303.521,138.373Z" transform="translate(-238.337 -123.116)" fill="#efa511"/>
                <path id="Path_514" data-name="Path 514" d="M303.362,136.322a4.132,4.132,0,0,0-.967-.849,4.338,4.338,0,0,0-1.54-.647l-52.248-10.85a4.169,4.169,0,0,0-.732-.086,4.422,4.422,0,0,0-3.874,2c-.065.1-.131.213-.191.324l-.257-.236-.079-.075c-.005-.008,0-.007,0-.014s-.017-.025-.029-.035a.627.627,0,0,1-.084-.248c0-.019-.006-.037-.008-.056a.623.623,0,0,1,.03-.226c0-.014,0-.029.006-.042a.627.627,0,0,1,.057-.1c.01-.013.013-.027.021-.032.052-.077.1-.153.155-.223a.27.27,0,0,1,.051-.07c.059-.075.119-.15.185-.224s.142-.16.216-.232a.006.006,0,0,1,.008-.005c.075-.079.155-.15.236-.221a1.931,1.931,0,0,1,.191-.15,2.961,2.961,0,0,1,.349-.241.4.4,0,0,1,.092-.061c.066-.038.132-.075.2-.105a.256.256,0,0,1,.05-.033c.073-.036.154-.077.234-.112l.014,0c.018-.018.04-.021.057-.032.079-.027.158-.062.237-.089l.014,0c.017-.011.032-.015.049-.026.046-.012.086-.026.132-.038l.139-.037c.039-.014.077-.021.116-.034s.053-.01.083-.012a1.551,1.551,0,0,1,.175-.036,1.421,1.421,0,0,1,.165-.024.427.427,0,0,1,.081,0c.015,0,.024-.01.038-.007a1.237,1.237,0,0,1,.237-.017,1.431,1.431,0,0,1,.242-.008.01.01,0,0,1,.014,0,1.6,1.6,0,0,1,.182,0,2.774,2.774,0,0,1,.344.028c.113.016.233.034.352.059l52.248,10.849a2.241,2.241,0,0,1,.3.076,1.2,1.2,0,0,1,.158.048,2.73,2.73,0,0,1,.332.12,2.166,2.166,0,0,1,.286.132,4.037,4.037,0,0,1,.717.44,4.733,4.733,0,0,1,.364.316,4.238,4.238,0,0,1,.614.725C303.207,136.049,303.289,136.183,303.362,136.322Z" transform="translate(-238.342 -123.116)" fill="#ffc97b"/>
                <path id="Path_515" data-name="Path 515" d="M306.545,186.506a2.614,2.614,0,1,1-2.028-3.091A2.614,2.614,0,0,1,306.545,186.506Z" transform="translate(-272.919 -159.021)" fill="#ef7e03"/>
                <path id="Path_516" data-name="Path 516" d="M307.586,185.877a2.614,2.614,0,1,1-2.028-3.091A2.614,2.614,0,0,1,307.586,185.877Z" transform="translate(-273.54 -158.646)" fill="#ff6700"/>
              </g>
              <path id="Path_517" data-name="Path 517" d="M249.088,182.147l-6.408-22.4c-.027-.1-.053-.185-.087-.279q-.073-.184-.158-.361l0,0c-.023-.063-.09-.2-.142-.3a.5.5,0,0,0-.046-.413,4.64,4.64,0,0,0-1.036-1.261c-.129-.089-.264-.169-.4-.248a4,4,0,0,0-.88-.356c-.154-.045-.313-.081-.469-.11a4.055,4.055,0,0,0-.839-.057,2.185,2.185,0,0,0-.315.016,2.8,2.8,0,0,0-.349.048,1.266,1.266,0,0,0-.162.032,2.2,2.2,0,0,0-.3.071l-51.3,14.68c-.117.034-.231.074-.339.112a2.819,2.819,0,0,0-.317.135,1.569,1.569,0,0,0-.162.083.01.01,0,0,0-.014,0,1.4,1.4,0,0,0-.21.12,1.169,1.169,0,0,0-.2.124,1.044,1.044,0,0,0-.1.065,1.376,1.376,0,0,0-.135.1,1.773,1.773,0,0,0-.138.114c-.025.015-.042.034-.067.049-.063.063-.129.118-.193.181-.036.032-.064.063-.1.1-.017.019-.028.03-.045.05-.057.061-.112.128-.168.189l-.05.059c-.055.067-.107.142-.156.208a2.6,2.6,0,0,0-.155.237.4.4,0,0,0-.054.1,2.905,2.905,0,0,0-.2.375,1.979,1.979,0,0,0-.1.221c-.038.1-.076.2-.106.3a.007.007,0,0,0,0,.009c-.031.1-.061.2-.083.306s-.042.19-.059.284a.272.272,0,0,0-.013.085c-.013.085-.023.177-.034.269,0,.009,0,.023,0,.038a.625.625,0,0,0,0,.113c0,.014.012.026.015.04h0c.023.137,6.9,23.8,6.9,23.8a4.4,4.4,0,0,0,5.44,3.02l50.728-14.515c.117-.033.224-.072.332-.109a2.083,2.083,0,0,0,.2-.088,2.229,2.229,0,0,0,.288-.134,4.083,4.083,0,0,0,.375-.219,3.075,3.075,0,0,0,.307-.221,4.359,4.359,0,0,0,.82-.843,2.208,2.208,0,0,0,.147-.213,1.661,1.661,0,0,0,.161-.269,3.017,3.017,0,0,0,.138-.269,2.067,2.067,0,0,0,.118-.286,3.951,3.951,0,0,0,.181-.586c.02-.087.037-.181.057-.269a.079.079,0,0,1,0-.038A4.251,4.251,0,0,0,249.088,182.147Z" transform="translate(-171.522 -126.75)" fill="#ff6700" opacity="0.25" style="mix-blend-mode: multiply;isolation: isolate"/>
              <g id="Group_498" data-name="Group 498" transform="translate(6.283 33.096)">
                <path id="Path_518" data-name="Path 518" d="M231.081,168.855l5.231,22.7a4.252,4.252,0,0,1,.012,1.892.072.072,0,0,0-.006.038c-.024.086-.046.179-.071.265a3.892,3.892,0,0,1-.211.575,2.05,2.05,0,0,1-.133.28c-.045.091-.1.177-.152.262a1.625,1.625,0,0,1-.175.26,2.3,2.3,0,0,1-.158.2,4.359,4.359,0,0,1-.863.8,2.954,2.954,0,0,1-.318.205,3.988,3.988,0,0,1-.386.2,2.244,2.244,0,0,1-.295.119,1.982,1.982,0,0,1-.209.077c-.109.033-.219.065-.337.093L181.6,208.671a4.4,4.4,0,0,1-5.275-3.3l-5.229-22.693c-.023-.1-.043-.187-.059-.286l0-.015a3.082,3.082,0,0,1-.045-.641c-.008-.005,0-.007,0-.014,0-.03,0-.066,0-.095a4.1,4.1,0,0,1,.084-.81c.021-.1.044-.193.071-.294s.059-.189.088-.284a4.57,4.57,0,0,1,.233-.544,4.212,4.212,0,0,1,.513-.791,4.36,4.36,0,0,1,2.413-1.5l51.416-11.848a4.41,4.41,0,0,1,4.478,1.617c0,.007.008.006.01.013a4.509,4.509,0,0,1,.42.679.575.575,0,0,1,.045.1,3.861,3.861,0,0,1,.25.608C231.038,168.668,231.059,168.758,231.081,168.855Z" transform="translate(-170.656 -165.257)" fill="#f7902b"/>
                <path id="Path_519" data-name="Path 519" d="M236.324,214.473a.072.072,0,0,0-.006.038c-.024.086-.046.179-.071.265a3.892,3.892,0,0,1-.211.575,2.048,2.048,0,0,1-.133.28c-.045.091-.1.177-.152.262s-.114.173-.175.26a2.294,2.294,0,0,1-.158.2,4.359,4.359,0,0,1-.863.8,2.956,2.956,0,0,1-.318.205,3.981,3.981,0,0,1-.386.2,2.242,2.242,0,0,1-.295.119,1.982,1.982,0,0,1-.209.077c-.109.033-.219.065-.337.093L181.6,229.7a4.4,4.4,0,0,1-5.275-3.3L171.091,203.7c-.023-.1-.043-.187-.059-.286l0-.015a3.082,3.082,0,0,1-.045-.641c-.008-.005,0-.007,0-.014,0-.03,0-.066,0-.095a4.1,4.1,0,0,1,.084-.81c.021-.1.044-.193.071-.294s.059-.189.088-.284a4.567,4.567,0,0,1,.233-.544c0,.007,0,.015,0,.029a4.1,4.1,0,0,0-.084.81,3.669,3.669,0,0,0,.048.75l0,.015a1.918,1.918,0,0,0,.04.2l5.248,22.776a4.4,4.4,0,0,0,5.275,3.3L233.4,216.755A4.387,4.387,0,0,0,236.324,214.473Z" transform="translate(-170.656 -186.283)" fill="#ffdc00"/>
                <path id="Path_520" data-name="Path 520" d="M230.234,167.209a.5.5,0,0,1-.1.609l-.406.385-23.392,22.169-.348.329-1.549,1.469-2.494-.787-.095-.029-30.781-9.707-.134-.042-.332-.107a.445.445,0,0,1-.106-.048c-.015,0-.026-.016-.041-.02a.623.623,0,0,1-.18-.191c-.01-.016-.021-.03-.03-.047a.628.628,0,0,1-.067-.218c0-.015-.011-.026-.013-.041a.637.637,0,0,1,.011-.112c0-.015,0-.029.006-.038.016-.091.031-.183.048-.267a.264.264,0,0,1,.017-.084c.023-.093.045-.186.074-.281s.063-.2.1-.3a.007.007,0,0,1,.005-.009c.035-.1.078-.2.122-.3a1.905,1.905,0,0,1,.111-.216,2.891,2.891,0,0,1,.216-.364.412.412,0,0,1,.059-.094,2.687,2.687,0,0,1,.167-.229c.051-.063.108-.135.166-.2l.053-.056c.06-.058.118-.122.178-.18.017-.019.03-.029.047-.047.037-.031.067-.059.1-.09.067-.059.135-.111.2-.171.026-.013.044-.032.07-.045a1.624,1.624,0,0,1,.144-.106,1.38,1.38,0,0,1,.14-.091,1.017,1.017,0,0,1,.1-.06,1.187,1.187,0,0,1,.208-.114,1.424,1.424,0,0,1,.217-.108.01.01,0,0,1,.014,0,1.551,1.551,0,0,1,.166-.075,2.864,2.864,0,0,1,.324-.119c.109-.032.226-.067.344-.094l52-11.983a2.236,2.236,0,0,1,.3-.055,1.288,1.288,0,0,1,.163-.023,2.769,2.769,0,0,1,.351-.029,2.153,2.153,0,0,1,.315,0,4.031,4.031,0,0,1,.835.1c.155.038.311.082.463.135a3.994,3.994,0,0,1,.861.4c.137.086.267.173.391.268A4.644,4.644,0,0,1,230.234,167.209Z" transform="translate(-170.169 -164.984)" fill="#dbeff6"/>
                <path id="Path_521" data-name="Path 521" d="M230.871,169.187l-23.877,22.631-.349.329-2.252,2.136-2.075-.656-.26-.079L171.813,184l-.695-.221-.027-.118c-.023-.1-.043-.187-.059-.286l0-.015a3.082,3.082,0,0,1-.045-.641c-.008-.005,0-.007,0-.014,0-.029,0-.066,0-.095a4.1,4.1,0,0,1,.084-.81c.021-.1.044-.193.071-.294s.059-.189.088-.284a4.567,4.567,0,0,1,.233-.544,4.211,4.211,0,0,1,.513-.791,4.528,4.528,0,0,1,1.559-.7l52-11.983a4.428,4.428,0,0,1,4.053,1.108c0,.007.008.005.01.012a4.459,4.459,0,0,1,.42.679c.077.143.622-.383.68-.227C230.74,168.868,230.844,169.1,230.871,169.187Z" transform="translate(-170.656 -166.243)" fill="#ef7e03"/>
                <path id="Path_522" data-name="Path 522" d="M230.279,167.69l-.541.512-23.392,22.169L206,190.7l-1.549,1.469-2.494-.787-.095-.029-30.781-9.707-.134-.042-.332-.107a.445.445,0,0,1-.106-.048c-.015,0-.026-.016-.041-.02a.632.632,0,0,1-.279-.609c0-.015,0-.029.006-.038.016-.091.031-.183.048-.267a.264.264,0,0,1,.017-.084c.023-.093.045-.186.074-.281s.063-.2.1-.3a.007.007,0,0,1,.005-.009c.035-.1.078-.2.122-.3a1.905,1.905,0,0,1,.111-.216,3.88,3.88,0,0,1,.216-.364c.066-.1.126-.183.194-.271s.136-.171.212-.254.154-.16.231-.236.162-.154.248-.225c.049-.04.105-.083.161-.125a1.628,1.628,0,0,1,.144-.106c.07-.046.14-.091.212-.129.013-.01.018-.019.032-.022a1.187,1.187,0,0,1,.208-.114,1.425,1.425,0,0,1,.217-.108.01.01,0,0,1,.014,0,1.55,1.55,0,0,1,.166-.075,2.867,2.867,0,0,1,.324-.119c.109-.032.226-.067.344-.094l52-11.983a2.235,2.235,0,0,1,.3-.055,1.287,1.287,0,0,1,.163-.023,2.768,2.768,0,0,1,.351-.029,2.153,2.153,0,0,1,.315,0,4.031,4.031,0,0,1,.835.1c.155.038.311.082.463.135a3.993,3.993,0,0,1,.861.4c.137.086.267.173.391.268A4.93,4.93,0,0,1,230.279,167.69Z" transform="translate(-170.177 -164.984)" fill="#ffc239"/>
                <path id="Path_523" data-name="Path 523" d="M229.265,165.895a4.128,4.128,0,0,0-1.233-.367,4.346,4.346,0,0,0-1.67.055l-52,11.983a4.152,4.152,0,0,0-.7.227,4.421,4.421,0,0,0-2.684,3.436c-.016.121-.031.248-.038.374l-.332-.107-.1-.035c-.008-.005,0-.007,0-.014s-.026-.016-.041-.02a.623.623,0,0,1-.18-.191c-.01-.016-.021-.03-.03-.047a.628.628,0,0,1-.067-.218c0-.015-.011-.026-.013-.041a.637.637,0,0,1,.011-.112c0-.015,0-.029.006-.038.016-.091.031-.183.048-.267a.264.264,0,0,1,.017-.084c.023-.093.045-.186.074-.281s.063-.2.1-.3a.007.007,0,0,1,.005-.009c.035-.1.078-.2.122-.3a1.905,1.905,0,0,1,.111-.216,2.891,2.891,0,0,1,.216-.364.412.412,0,0,1,.059-.094c.044-.061.089-.123.135-.177a.243.243,0,0,1,.032-.051c.051-.063.108-.135.166-.2l.014,0c.009-.024.028-.036.039-.053.06-.058.118-.122.178-.18l.014,0c.01-.017.023-.027.034-.044.037-.031.067-.059.1-.09l.111-.091c.03-.029.061-.051.091-.08.026-.013.044-.032.07-.045a1.624,1.624,0,0,1,.144-.106,1.38,1.38,0,0,1,.14-.091.457.457,0,0,1,.072-.038c.013-.01.018-.019.032-.022a1.187,1.187,0,0,1,.208-.114,1.424,1.424,0,0,1,.217-.108.01.01,0,0,1,.014,0,1.551,1.551,0,0,1,.166-.075,2.864,2.864,0,0,1,.324-.119c.109-.032.226-.067.344-.094l52-11.983a2.236,2.236,0,0,1,.3-.055,1.288,1.288,0,0,1,.163-.023,2.769,2.769,0,0,1,.351-.029,2.153,2.153,0,0,1,.315,0,4.031,4.031,0,0,1,.835.1c.155.038.311.082.463.135a4.236,4.236,0,0,1,.861.4C229.011,165.712,229.14,165.8,229.265,165.895Z" transform="translate(-170.169 -164.984)" fill="#ffdc00"/>
                <path id="Path_524" data-name="Path 524" d="M253.009,228.837a2.614,2.614,0,1,1-3.135-1.961A2.615,2.615,0,0,1,253.009,228.837Z" transform="translate(-216.464 -201.831)" fill="#ef7e03"/>
                <path id="Path_525" data-name="Path 525" d="M253.692,227.831a2.614,2.614,0,1,1-3.135-1.961A2.615,2.615,0,0,1,253.692,227.831Z" transform="translate(-216.871 -201.232)" fill="#ff6700"/>
              </g>
              <path id="Path_526" data-name="Path 526" d="M316.165,193.579l-3.2-21.992c-.014-.094-.026-.182-.047-.275-.03-.122-.066-.243-.1-.363-.015-.063-.061-.2-.1-.3a.451.451,0,0,0,.013-.4,4.392,4.392,0,0,0-.849-1.329c-.116-.1-.237-.2-.366-.288a4.029,4.029,0,0,0-.822-.454c-.146-.063-.3-.118-.449-.167a4.213,4.213,0,0,0-.823-.166,2.212,2.212,0,0,0-.314-.027,2.929,2.929,0,0,0-.353,0,1.305,1.305,0,0,0-.164.008,2.333,2.333,0,0,0-.306.027l-52.857,6.981c-.12.016-.239.038-.352.06a2.776,2.776,0,0,0-.333.085,1.575,1.575,0,0,0-.172.057.01.01,0,0,0-.014,0,1.466,1.466,0,0,0-.225.084,1.262,1.262,0,0,0-.217.09,1.128,1.128,0,0,0-.108.049,1.4,1.4,0,0,0-.147.074,1.582,1.582,0,0,0-.153.088c-.027.01-.046.027-.074.037-.072.051-.145.095-.217.145-.04.026-.072.051-.112.076l-.051.041c-.065.05-.128.106-.194.156l-.057.049c-.064.056-.127.12-.183.175a2.525,2.525,0,0,0-.187.2.4.4,0,0,0-.067.084,3.214,3.214,0,0,0-.751,2.268,13.768,13.768,0,0,0,.729,2.7q.556,2.013,1.115,4.025.659,2.373,1.318,4.745t1.316,4.729q.553,1.989,1.108,3.978l.694,2.493a4.036,4.036,0,0,1,.133.477,4.366,4.366,0,0,0,4.962,3.578l49.22-7.082c.12-.016.232-.037.344-.059a2.191,2.191,0,0,0,.215-.056,2.365,2.365,0,0,0,.3-.088,4.175,4.175,0,0,0,.4-.156,2.98,2.98,0,0,0,.335-.168,4.325,4.325,0,0,0,.93-.686,2.044,2.044,0,0,0,.175-.181,1.6,1.6,0,0,0,.2-.232,2.921,2.921,0,0,0,.175-.236,1.951,1.951,0,0,0,.158-.254,3.689,3.689,0,0,0,.261-.529c.032-.08.062-.166.094-.246,0-.013,0-.021.009-.036A3.87,3.87,0,0,0,316.165,193.579Z" transform="translate(-212.543 -133.576)" fill="#ff6700" opacity="0.25" style="mix-blend-mode: multiply;isolation: isolate"/>
              <g id="Group_499" data-name="Group 499" transform="translate(42.607 32.39)">
                <path id="Path_527" data-name="Path 527" d="M321.749,167.429l3.2,23.074a4.245,4.245,0,0,1-.156,1.886.073.073,0,0,0-.009.037c-.031.084-.062.174-.094.258a4.006,4.006,0,0,1-.262.555,2.006,2.006,0,0,1-.157.266c-.053.086-.114.167-.174.248a1.672,1.672,0,0,1-.2.243,2.28,2.28,0,0,1-.175.19,4.349,4.349,0,0,1-.93.719,3.071,3.071,0,0,1-.335.176,4,4,0,0,1-.4.164,2.2,2.2,0,0,1-.3.093,1.983,1.983,0,0,1-.215.059c-.112.023-.224.046-.344.062L268.927,202.7a4.4,4.4,0,0,1-4.962-3.754l-3.2-23.067c-.014-.1-.026-.191-.033-.29l.005-.015a3.124,3.124,0,0,1,.012-.642c-.008-.006,0-.007,0-.014,0-.029.006-.066.008-.095a4.077,4.077,0,0,1,.156-.8c.029-.1.06-.189.1-.287s.075-.183.113-.275a4.593,4.593,0,0,1,.281-.521,4.192,4.192,0,0,1,.581-.743,4.359,4.359,0,0,1,2.536-1.28l52.264-7.242a4.407,4.407,0,0,1,4.316,2.008c0,.007.008.006.009.013a4.48,4.48,0,0,1,.358.713.587.587,0,0,1,.036.1,3.836,3.836,0,0,1,.2.628C321.722,167.239,321.735,167.33,321.749,167.429Z" transform="translate(-260.467 -163.473)" fill="#ffa727"/>
                <path id="Path_528" data-name="Path 528" d="M324.79,206.12a.073.073,0,0,0-.009.037c-.031.084-.062.174-.094.258a4.005,4.005,0,0,1-.262.555,2.005,2.005,0,0,1-.157.266c-.053.086-.114.167-.174.248s-.129.162-.2.243a2.28,2.28,0,0,1-.175.19,4.349,4.349,0,0,1-.93.719,3.071,3.071,0,0,1-.335.176,4,4,0,0,1-.4.164,2.2,2.2,0,0,1-.3.093,1.983,1.983,0,0,1-.215.059c-.112.023-.224.046-.344.062l-52.264,7.243a4.4,4.4,0,0,1-4.962-3.754l-3.2-23.067c-.014-.1-.026-.191-.033-.29l.005-.015a3.124,3.124,0,0,1,.012-.642c-.008-.006,0-.007,0-.014,0-.03.006-.066.008-.095a4.077,4.077,0,0,1,.156-.8c.029-.1.06-.189.1-.287s.075-.183.113-.275a4.594,4.594,0,0,1,.281-.521c0,.007-.005.015,0,.029a4.082,4.082,0,0,0-.156.8,3.638,3.638,0,0,0-.018.751l-.005.015a1.951,1.951,0,0,0,.021.206l3.208,23.152a4.4,4.4,0,0,0,4.962,3.754l52.264-7.243A4.387,4.387,0,0,0,324.79,206.12Z" transform="translate(-260.467 -177.203)" fill="#ffd880"/>
                <path id="Path_529" data-name="Path 529" d="M321.124,165.793a.5.5,0,0,1-.151.6l-.438.347-25.265,20.007-.376.3-1.673,1.326-2.414-1-.092-.038-29.8-12.4-.13-.054-.321-.135a.458.458,0,0,1-.1-.058c-.015-.005-.024-.018-.039-.023a.623.623,0,0,1-.162-.206c-.009-.017-.019-.032-.026-.05a.626.626,0,0,1-.048-.223c0-.015-.009-.027-.009-.042a.6.6,0,0,1,.021-.111c.005-.015,0-.029.009-.038.023-.089.047-.179.072-.262a.273.273,0,0,1,.025-.082c.031-.09.061-.181.1-.273s.08-.2.125-.291a.007.007,0,0,1,.006-.008c.044-.1.1-.193.147-.286a1.919,1.919,0,0,1,.13-.205,2.933,2.933,0,0,1,.247-.344.408.408,0,0,1,.067-.088,2.66,2.66,0,0,1,.187-.213c.057-.059.119-.124.183-.184l.058-.051c.065-.052.128-.111.193-.164.019-.017.033-.026.052-.043.04-.027.072-.053.112-.08.071-.053.144-.1.216-.152.027-.011.046-.028.074-.039a1.635,1.635,0,0,1,.153-.093,1.336,1.336,0,0,1,.147-.078,1.051,1.051,0,0,1,.108-.051,1.2,1.2,0,0,1,.217-.095,1.374,1.374,0,0,1,.225-.089.01.01,0,0,1,.014,0,1.629,1.629,0,0,1,.171-.06,2.823,2.823,0,0,1,.333-.089c.112-.023.231-.046.351-.063l52.858-7.325a2.206,2.206,0,0,1,.306-.028,1.3,1.3,0,0,1,.164-.008,2.781,2.781,0,0,1,.353,0,2.153,2.153,0,0,1,.314.029,4.032,4.032,0,0,1,.823.174c.151.051.3.109.449.175a4,4,0,0,1,.822.476c.128.1.25.2.366.3A4.638,4.638,0,0,1,321.124,165.793Z" transform="translate(-260.078 -163.236)" fill="#dbeff6"/>
                <path id="Path_530" data-name="Path 530" d="M321.6,167.707l-25.79,20.425-.376.3L293,190.357l-2.009-.837-.252-.1-29.28-12.189-.673-.281-.017-.12c-.014-.1-.026-.191-.033-.29l.005-.015a3.124,3.124,0,0,1,.012-.642c-.008-.006,0-.007,0-.014,0-.029.006-.066.008-.095a4.077,4.077,0,0,1,.156-.8c.029-.1.06-.189.1-.287s.075-.183.113-.275a4.592,4.592,0,0,1,.281-.521,4.192,4.192,0,0,1,.581-.743,4.523,4.523,0,0,1,1.614-.555l52.858-7.325a4.427,4.427,0,0,1,3.939,1.463c0,.007.008.006.009.013a4.424,4.424,0,0,1,.358.713c.064.149.654-.326.7-.166C321.5,167.378,321.578,167.616,321.6,167.707Z" transform="translate(-260.467 -164.421)" fill="#f9941c"/>
                <path id="Path_531" data-name="Path 531" d="M321.126,166.276l-.584.463-25.265,20.007-.376.3-1.673,1.326-2.414-1-.092-.038-29.8-12.4-.13-.054-.321-.135a.458.458,0,0,1-.1-.058c-.015-.005-.024-.018-.039-.023a.633.633,0,0,1-.224-.631c.005-.015,0-.029.009-.038.023-.089.047-.179.072-.262a.272.272,0,0,1,.025-.082c.031-.09.061-.181.1-.273s.08-.2.125-.291a.007.007,0,0,1,.006-.008c.044-.1.1-.193.147-.286a1.914,1.914,0,0,1,.13-.205,3.989,3.989,0,0,1,.247-.344c.074-.09.142-.171.217-.253s.151-.158.234-.234.167-.145.251-.215.175-.14.267-.2c.053-.036.112-.073.172-.11a1.64,1.64,0,0,1,.153-.093c.074-.039.147-.078.222-.11.013-.009.019-.017.033-.019a1.2,1.2,0,0,1,.217-.095,1.375,1.375,0,0,1,.225-.089.01.01,0,0,1,.014,0,1.626,1.626,0,0,1,.171-.06,2.825,2.825,0,0,1,.333-.089c.112-.023.231-.046.351-.063l52.858-7.325a2.206,2.206,0,0,1,.306-.028,1.3,1.3,0,0,1,.164-.008,2.782,2.782,0,0,1,.353,0,2.153,2.153,0,0,1,.314.029,4.032,4.032,0,0,1,.823.174c.151.051.3.109.449.175a4,4,0,0,1,.822.476c.128.1.25.2.366.3A4.926,4.926,0,0,1,321.126,166.276Z" transform="translate(-260.086 -163.236)" fill="#ffd15f"/>
                <path id="Path_532" data-name="Path 532" d="M320.274,164.4a4.132,4.132,0,0,0-1.2-.475,4.347,4.347,0,0,0-1.669-.093l-52.857,7.325a4.137,4.137,0,0,0-.719.164,4.42,4.42,0,0,0-2.978,3.184c-.027.119-.053.245-.071.37l-.321-.135-.1-.044c-.008-.006,0-.007,0-.014s-.024-.018-.039-.023a.623.623,0,0,1-.162-.206c-.009-.017-.019-.032-.026-.05a.626.626,0,0,1-.048-.223c0-.015-.009-.027-.009-.042a.6.6,0,0,1,.021-.111c.005-.015,0-.029.009-.038.023-.089.047-.179.072-.262a.273.273,0,0,1,.025-.082c.031-.09.061-.181.1-.273s.08-.2.125-.291a.007.007,0,0,1,.006-.008c.044-.1.1-.193.147-.286a1.919,1.919,0,0,1,.13-.205,2.933,2.933,0,0,1,.247-.344.408.408,0,0,1,.067-.088c.05-.057.1-.115.15-.165a.239.239,0,0,1,.037-.048c.057-.059.119-.124.183-.184l.014,0c.011-.023.031-.033.044-.049.065-.052.128-.111.193-.164l.014,0c.012-.016.025-.025.038-.041.04-.027.072-.053.112-.08l.118-.081c.032-.026.066-.045.1-.071s.046-.028.074-.039a1.635,1.635,0,0,1,.153-.093,1.336,1.336,0,0,1,.147-.078.394.394,0,0,1,.075-.032c.013-.009.019-.017.033-.019a1.2,1.2,0,0,1,.217-.095,1.374,1.374,0,0,1,.225-.089.01.01,0,0,1,.014,0,1.629,1.629,0,0,1,.171-.06,2.823,2.823,0,0,1,.333-.089c.112-.023.231-.046.351-.063l52.858-7.325a2.206,2.206,0,0,1,.306-.028,1.3,1.3,0,0,1,.164-.008,2.781,2.781,0,0,1,.353,0,2.153,2.153,0,0,1,.314.029,4.032,4.032,0,0,1,.823.174c.151.051.3.109.449.175a4.247,4.247,0,0,1,.822.476C320.037,164.194,320.159,164.292,320.274,164.4Z" transform="translate(-260.078 -163.236)" fill="#ffd880"/>
                <path id="Path_533" data-name="Path 533" d="M340.073,222.172a2.614,2.614,0,1,1-2.948-2.231A2.615,2.615,0,0,1,340.073,222.172Z" transform="translate(-304.653 -197.017)" fill="#ef7e03"/>
                <circle id="Ellipse_247" data-name="Ellipse 247" cx="2.614" cy="2.614" r="2.614" transform="translate(30.227 22.858) rotate(-7.025)" fill="#ff6700"/>
              </g>
            </g>
          </g>
          <path id="Rectangle_1478" data-name="Rectangle 1478" d="M2.614,0H9.032a2.614,2.614,0,0,1,2.614,2.614v0A2.614,2.614,0,0,1,9.032,5.229H2.614A2.614,2.614,0,0,1,0,2.614v0A2.614,2.614,0,0,1,2.614,0Z" transform="translate(110.519 46.561)" fill="#8ad5ff"/>
          <rect id="Rectangle_1479" data-name="Rectangle 1479" width="8.735" height="13.221" rx="4.367" transform="translate(129.384 38.57)" fill="#8ad5ff"/>
          <rect id="Rectangle_1480" data-name="Rectangle 1480" width="11.319" height="4.724" rx="2.362" transform="translate(82.235 69.764)" fill="#69b1e2"/>
          <rect id="Rectangle_1481" data-name="Rectangle 1481" width="12.567" height="4.991" rx="2.496" transform="translate(78.403 16.377)" fill="#69b1e2"/>
          <path id="Path_535" data-name="Path 535" d="M283.871,108.108v46.083H272.655c.061-1.528.121-3.048.182-4.516,5.2-71.45-27.064-62.789-27.064-62.789l.113-.212a25.038,25.038,0,0,1,37.985,21.435Z" transform="translate(-208.946 -71.323)" fill="#405f9a" opacity="0.5" style="mix-blend-mode: multiply;isolation: isolate"/>
          <ellipse id="Ellipse_248" data-name="Ellipse 248" cx="2.544" cy="3.979" rx="2.544" ry="3.979" transform="matrix(0.5, -0.866, 0.866, 0.5, 115.167, 8.717)" fill="#ff7e27"/>
        </g>
      </g>
    </g>
    <path id="Path_536" data-name="Path 536" d="M553.41,114.394c.5,5.638,1.166,11.391,3.625,16.488s7.056,9.5,12.666,10.245a10.213,10.213,0,0,0,5.029-.506,9.634,9.634,0,0,0,5.769-7.957,12.976,12.976,0,0,0-3.208-9.535c-3.795-4.473-9.836-6.534-13.7-10.946-3.507-4-4.8-9.433-7.28-14.143-.7-1.326-1.654-2.717-3.121-3.018-4.341-.891-1.637,5.755-1.283,7.362A94.4,94.4,0,0,1,553.41,114.394Z" transform="translate(-250.657 -39.13)" fill="#ffdc00"/>
  </g>
</svg>
