<svg xmlns="http://www.w3.org/2000/svg" width="23.123" height="21.391" viewBox="0 0 23.123 21.391">
  <g id="Group_1613" data-name="Group 1613" transform="translate(-37.573 346.468) rotate(-90)">
    <path id="Path_3475" data-name="Path 3475" d="M328.7,60.246a1.247,1.247,0,0,1-1.7.2l-1.463-1.112a1.131,1.131,0,0,1-.182-1.638l6.495-7.731a1.462,1.462,0,0,0-.007-1.823l-6.479-7.576a1.118,1.118,0,0,1,.174-1.631l1.463-1.112a1.285,1.285,0,0,1,1.728.183l8.5,9.909a1.487,1.487,0,0,1,.023,1.833Z" transform="translate(0 0)" fill="#fff"/>
    <path id="Path_3476" data-name="Path 3476" d="M345.625,60.246a1.247,1.247,0,0,1-1.7.2l-1.463-1.112a1.13,1.13,0,0,1-.182-1.638l6.495-7.731a1.463,1.463,0,0,0-.008-1.823l-6.48-7.576a1.118,1.118,0,0,1,.175-1.631l1.463-1.113a1.286,1.286,0,0,1,1.728.184l8.5,9.909a1.486,1.486,0,0,1,.024,1.833Z" transform="translate(-8.011)" fill="#fff"/>
  </g>
</svg>
