<svg id="Haerd-B" xmlns="http://www.w3.org/2000/svg" xmlns:xlink="http://www.w3.org/1999/xlink" width="19.915" height="16.944" viewBox="0 0 19.915 16.944">

  <g id="Group_492" data-name="Group 492">
    <g id="Group_491" data-name="Group 491" transform="translate(0 0)" clip-path="url(#clip-path)">
      <g id="Group_490" data-name="Group 490">
        <g id="Group_489" data-name="Group 489" clip-path="url(#clip-path-2)">
          <g id="Group_488" data-name="Group 488" transform="translate(0.023 0.022)">
            <path id="Path_477" data-name="Path 477" d="M-539.2,175c-.219-.224-.413-.437-.623-.633a5.412,5.412,0,0,0-4.916-1.426,5.192,5.192,0,0,0-2.947,1.656,5.4,5.4,0,0,0-1.363,4.842,5.258,5.258,0,0,0,1.5,2.8q3.442,3.449,6.89,6.892a1.993,1.993,0,0,0,1.313.6,1.99,1.99,0,0,0,1.6-.6q3.438-3.435,6.873-6.873a5.322,5.322,0,0,0,1-1.39,5.525,5.525,0,0,0,.5-3.657,5.3,5.3,0,0,0-2.06-3.272,5.389,5.389,0,0,0-4.164-1.05,5.231,5.231,0,0,0-2.676,1.2c-.3.256-.576.547-.862.824A.661.661,0,0,0-539.2,175Z" transform="translate(549.16 -172.824)" fill="#fff"/>
            <path id="Path_478" data-name="Path 478" d="M-539.2,175a.661.661,0,0,1,.058-.079c.286-.276.559-.567.862-.824a5.231,5.231,0,0,1,2.676-1.2,5.389,5.389,0,0,1,4.164,1.05,5.3,5.3,0,0,1,2.06,3.272,5.525,5.525,0,0,1-.5,3.657,5.322,5.322,0,0,1-1,1.39q-3.435,3.438-6.873,6.873a1.99,1.99,0,0,1-1.6.6,1.993,1.993,0,0,1-1.313-.6q-3.445-3.445-6.89-6.892a5.258,5.258,0,0,1-1.5-2.8,5.4,5.4,0,0,1,1.363-4.842,5.192,5.192,0,0,1,2.947-1.656,5.412,5.412,0,0,1,4.916,1.426C-539.614,174.558-539.42,174.772-539.2,175Zm-.736.714c-.213-.217-.411-.437-.629-.638a4.393,4.393,0,0,0-3.759-1.17,4.276,4.276,0,0,0-2.612,1.388,4.382,4.382,0,0,0-1.153,3.682,4.306,4.306,0,0,0,1.258,2.534q3.444,3.453,6.9,6.9a1.017,1.017,0,0,0,1.464,0l6.843-6.842a4.343,4.343,0,0,0,.617-.768,4.516,4.516,0,0,0,.651-3.252,4.254,4.254,0,0,0-1.325-2.465,4.386,4.386,0,0,0-3.8-1.165,4.251,4.251,0,0,0-2.333,1.143c-.439.416-.858.852-1.286,1.28-.306.306-.612.613-.919.918a.512.512,0,0,1-.8-.091.515.515,0,0,1,.083-.643C-540.474,176.245-540.2,175.976-539.937,175.71Z" transform="translate(549.16 -172.824)" fill="#fff"/>
            <path id="Path_479" data-name="Path 479" d="M-521.161,194.476c-.267.267-.537.536-.806.806a.515.515,0,0,0-.083.643.512.512,0,0,0,.8.091c.307-.3.612-.612.919-.918.428-.427.847-.864,1.287-1.28a4.251,4.251,0,0,1,2.333-1.143,4.386,4.386,0,0,1,3.8,1.165,4.254,4.254,0,0,1,1.325,2.465,4.516,4.516,0,0,1-.651,3.252,4.344,4.344,0,0,1-.617.768l-6.843,6.842a1.017,1.017,0,0,1-1.464,0q-3.448-3.448-6.9-6.9a4.307,4.307,0,0,1-1.258-2.534,4.381,4.381,0,0,1,1.153-3.682,4.275,4.275,0,0,1,2.612-1.388,4.392,4.392,0,0,1,3.759,1.17C-521.572,194.039-521.374,194.26-521.161,194.476Z" transform="translate(530.384 -191.591)" opacity="0.5"/>
          </g>
        </g>
      </g>
    </g>
  </g>
  <path id="Path_480" data-name="Path 480" d="M-261.246,212.752a3.724,3.724,0,0,0-1.083-2.4,3.728,3.728,0,0,0-1.633-.956.511.511,0,0,0-.629.355.511.511,0,0,0,.355.629,2.7,2.7,0,0,1,1.184.694,2.7,2.7,0,0,1,.786,1.746.511.511,0,0,0,.509.479h.032a.511.511,0,0,0,.478-.541Zm0,0" transform="translate(279.372 -207.457)" fill="#fff"/>
</svg>
