<svg xmlns="http://www.w3.org/2000/svg" xmlns:xlink="http://www.w3.org/1999/xlink" width="24" height="24" viewBox="0 0 24 24">
  <defs>
    <clipPath id="clip-path">
      <rect id="Rectangle_29" data-name="Rectangle 29" width="24" height="24" transform="translate(0 0)" fill="#fff"/>
    </clipPath>
  </defs>
  <g id="Group_36" data-name="Group 36" transform="translate(0 0)" clip-path="url(#clip-path)">
    <path id="Path_40" data-name="Path 40" d="M244.413,109.756l-3.44-2.932a2.028,2.028,0,0,0-2.652,0l-9.609,8.149a2.038,2.038,0,0,0-.22,2.876,2.06,2.06,0,0,0,2.236.594v10.4a.672.672,0,0,0,.671.68h16.4a.68.68,0,0,0,.68-.68v-10.4a2.039,2.039,0,0,0,2.713-2.078h0a2.024,2.024,0,0,0-.706-1.392l-2.007-1.72m-1.35-1.165-1.368-1.165m-3.389,17.244h-5.537V118.49h5.537Zm4.758,0h-3.408V117.819a.68.68,0,0,0-.68-.68h-6.888a.672.672,0,0,0-.671.68v10.347h-3.408v-10.7l7.565-6.417,7.488,6.411Zm2.546-11.2a.68.68,0,0,1-.959.074l-8.631-7.4a.68.68,0,0,0-.882,0l-8.724,7.4a.68.68,0,0,1-.888-1.03l9.609-8.149a.676.676,0,0,1,.885,0L249.6,116a.681.681,0,0,1,.074.958Zm0,0" transform="translate(-227.601 -105.928)" fill="#fff"/>
  </g>
</svg>
