<svg xmlns="http://www.w3.org/2000/svg" xmlns:xlink="http://www.w3.org/1999/xlink" width="102.343" height="98" viewBox="0 0 102.343 98">
  <defs>
    <clipPath id="clip-path">
      <rect id="Rectangle_31" data-name="Rectangle 31" width="102" height="98" transform="translate(0.148 0.4)"/>
    </clipPath>
  </defs>
  <g id="logo" transform="translate(-129.657 -308)">
    <g id="LOGO-tIME_" data-name="LOGO-tIME " transform="translate(-34.343 255.409)">
      <g id="Group_49" data-name="Group 49" transform="translate(164.195 52.191)">
        <g id="Group_48" data-name="Group 48" transform="translate(0 0)" clip-path="url(#clip-path)">
          <path id="Path_58" data-name="Path 58" d="M266.458,106.292a40.468,40.468,0,0,0-31.469-35.486V65.713a6.817,6.817,0,0,0-1.645-13.433H218.908a6.817,6.817,0,0,0-1.646,13.433v5.108a40.5,40.5,0,0,0-23.149,14.725c-.05,0-.1-.008-.152-.008H179.673a2.005,2.005,0,0,0,0,4.01h11.712a40.191,40.191,0,0,0-3.558,7.707H166.005a2.005,2.005,0,1,0,0,4.01h20.689a40.726,40.726,0,0,0-1,7.707h-8.867a2.005,2.005,0,0,0,0,4.01h8.931a40.692,40.692,0,0,0,1.252,7.707H174.025a2.005,2.005,0,1,0,0,4.01h14.269a40.5,40.5,0,0,0,33.859,25.928q1.987.2,3.973.2a40.6,40.6,0,0,0,22.1-6.533,2,2,0,1,0-2.188-3.36,36.491,36.491,0,1,1,10.748-10.761,2,2,0,1,0,3.362,2.183,40.625,40.625,0,0,0,6.306-26.059ZM216.1,59.1a2.81,2.81,0,0,1,2.807-2.807h14.437a2.807,2.807,0,0,1,0,5.614H218.908A2.81,2.81,0,0,1,216.1,59.1Zm5.172,11.035V65.915h9.707v4.21a40.823,40.823,0,0,0-9.707.007Zm0,0" transform="translate(-164.195 -52.203)"/>
        </g>
      </g>
      <path id="Path_59" data-name="Path 59" d="M601.782,467.526a2.005,2.005,0,1,0,1.418.587,2.016,2.016,0,0,0-1.418-.587Zm0,0" transform="translate(-348.403 -332.001)"/>
      <path id="Path_60" data-name="Path 60" d="M349.978,186.628a31.1,31.1,0,1,0,31.1,31.1,31.139,31.139,0,0,0-31.1-31.1Zm0,58.2a27.094,27.094,0,1,1,27.094-27.094,27.124,27.124,0,0,1-27.094,27.094Zm0,0" transform="translate(-123.822 -107.423)"/>
      <path id="Path_61" data-name="Path 61" d="M444.342,262.02l-9.931,9.93a6.217,6.217,0,0,0-5.5,0l-4.445-4.444a2.005,2.005,0,1,0-2.836,2.835l4.445,4.445a6.231,6.231,0,1,0,11.176,0l9.931-9.931a2.005,2.005,0,0,0-2.836-2.835Zm-12.683,17.739a2.22,2.22,0,1,1,2.22-2.221,2.222,2.222,0,0,1-2.22,2.221Zm0,0" transform="translate(-205.502 -167.229)"/>
      <path id="Path_62" data-name="Path 62" d="M565.523,331.882h-1.858a2.005,2.005,0,0,0,0,4.01h1.858a2.005,2.005,0,0,0,0-4.01Zm0,0" transform="translate(-317.929 -223.553)"/>
      <path id="Path_63" data-name="Path 63" d="M360.948,331.639h-1.857a2.005,2.005,0,1,0,0,4.01h1.857a2.005,2.005,0,1,0,0-4.01Zm0,0" transform="translate(-154.372 -223.359)"/>
      <path id="Path_64" data-name="Path 64" d="M466.134,230.707a2.005,2.005,0,0,0,2.005-2.005v-1.858a2.005,2.005,0,1,0-4.01,0V228.7a2,2,0,0,0,2.005,2.005Zm0,0" transform="translate(-239.953 -137.973)"/>
      <path id="Path_65" data-name="Path 65" d="M465.888,429.417a2.005,2.005,0,0,0-2.005,2.005v1.858a2.005,2.005,0,0,0,4.01,0v-1.858a2,2,0,0,0-2.005-2.005Zm0,0" transform="translate(-239.756 -301.533)"/>
      <path id="Path_66" data-name="Path 66" d="M166.005,393.464a2.005,2.005,0,1,0,1.418.587,2.021,2.021,0,0,0-1.418-.587Zm0,0" transform="translate(0 -272.788)"/>
    </g>
  </g>
</svg>
