<svg xmlns="http://www.w3.org/2000/svg" width="22.916" height="25.084" viewBox="0 0 22.916 25.084">
  <path id="Path_44" data-name="Path 44" d="M-416.791,95.81l2.733,4.735a2.174,2.174,0,0,0,2.966.8,2.17,2.17,0,0,0,.794-2.966l-1.628-2.821,1.41-.814a.543.543,0,0,0,.2-.742l-.706-1.222,10.4-2.039a1.628,1.628,0,0,0,1.32-2.44l-1.8-3.124,1.153-1.746a.543.543,0,0,0,.017-.571l-1.086-1.88a.544.544,0,0,0-.5-.27l-2.088.125-2-3.469a1.614,1.614,0,0,0-1.39-.814h-.021a1.614,1.614,0,0,0-1.371.751l-7.091,9.033-4.61,2.661a3.8,3.8,0,0,0-1.391,5.19,3.8,3.8,0,0,0,4.7,1.628Zm5.554,3.107a1.084,1.084,0,0,1-.4,1.482,1.087,1.087,0,0,1-1.483-.4l-2.714-4.7,1.881-1.086,2.714,4.7Zm-1.231-4.3-.543-.94.94-.543.543.94Zm10.67-12.8.75,1.3-.669,1.013-1.293-2.24Zm-5.7-3.915a.531.531,0,0,1,.471-.26.534.534,0,0,1,.463.271l6.313,10.936a.543.543,0,0,1-.457.814,2.012,2.012,0,0,0-.3.051l-6.678-11.567c.14-.18.158-.2.186-.243Zm-.908,1.164,6.274,10.868-9.469,1.857-2.879-4.987Zm-12.151,14.583a2.71,2.71,0,0,1-.364-1.354,2.724,2.724,0,0,1,1.358-2.353l4.23-2.443,2.714,4.7-4.23,2.443a2.717,2.717,0,0,1-3.707-.993Zm0,0" transform="translate(422.001 -76.546)" fill="#fff"/>
</svg>
