<svg xmlns="http://www.w3.org/2000/svg" width="22.954" height="22.954" viewBox="0 0 22.954 22.954">
  <path id="Path_27" data-name="Path 27" d="M248.264,108.073h-1.076V106.28h-1.793v1.793H233.559V106.28h-1.793v1.793H230.69a2.693,2.693,0,0,0-2.69,2.69v15.781a2.693,2.693,0,0,0,2.69,2.69h17.574a2.693,2.693,0,0,0,2.69-2.69V110.763a2.693,2.693,0,0,0-2.69-2.69Zm.9,18.471a.9.9,0,0,1-.9.9H230.69a.9.9,0,0,1-.9-.9V114.708H249.16Zm0-13.629H229.793v-2.152a.9.9,0,0,1,.9-.9h1.076v1.793h1.793v-1.793h11.836v1.793h1.793v-1.793h1.076a.9.9,0,0,1,.9.9Zm0,0" transform="translate(-228 -106.28)" fill="#fff"/>
</svg>
