<svg xmlns="http://www.w3.org/2000/svg" width="141.131" height="141.131" viewBox="0 0 141.131 141.131">
  <g id="Group_515" data-name="Group 515" transform="translate(-52.442 -24.452)">
    <circle id="Ellipse_251" data-name="Ellipse 251" cx="49.897" cy="49.897" r="49.897" transform="translate(52.442 95.017) rotate(-45)" fill="#ffdc00"/>
    <g id="Group_514" data-name="Group 514" transform="translate(94.631 67.001)">
      <g id="Group_513" data-name="Group 513">
        <path id="Path_556" data-name="Path 556" d="M319.508,245.35H286.74s-2.5,4.4-5.933,4.8c-12.169,42.12,22.3,52.524,22.317,52.53h0c.022-.006,34.489-10.41,22.32-52.53C322.006,249.747,319.508,245.35,319.508,245.35Z" transform="translate(-274.482 -242.975)"/>
        <path id="Path_557" data-name="Path 557" d="M325.637,258.4h-29.8s-2.276,3.975-5.4,4.334c-11.067,38.055,20.28,47.455,20.3,47.461h0c.02-.006,31.366-9.406,20.3-47.461C327.908,262.376,325.637,258.4,325.637,258.4Z" transform="translate(-282.343 -253.374)" fill="#ffdc00"/>
        <path id="Path_558" data-name="Path 558" d="M313.821,239.832l-.3-1.007-1.173-.134c-2.227-.252-4.411-3.174-5-4.18l-.495-.838H269.715l-.488.84c-.586,1-2.752,3.925-5,4.178l-1.176.134-.3,1.007c-13.4,45.307,24.646,56.557,25.037,56.658l.506.131.508-.134C289.191,296.381,327.124,284.8,313.821,239.832ZM288.29,293.374c-4.586-1.56-33.4-13.049-22.4-51.875,2.882-.859,4.967-3.387,5.917-4.745h32.961c.95,1.358,3.033,3.888,5.917,4.745C321.685,280.327,292.872,291.814,288.29,293.374Z" transform="translate(-259.897 -233.673)" fill="#fff"/>
      </g>
      <path id="Path_559" data-name="Path 559" d="M366.032,314.614h-1.144c0-5.084-3.048-8.012-7.249-8.012s-7.249,2.928-7.249,8.012h-1.145c-1.686,0-2.245.627-2.245,2.313V327.61c0,1.686.559,3.274,2.245,3.274h16.787c1.686,0,2.728-1.588,2.728-3.274V316.927C368.76,315.241,367.718,314.614,366.032,314.614Zm-6.486,13.016h-3.815l.733-5.331a2.62,2.62,0,0,1-1.257-2.243,2.5,2.5,0,0,1,2.456-2.507,2.435,2.435,0,0,1,2.456,2.431,2.763,2.763,0,0,1-1.3,2.355Zm-6.867-13.016c0-4.677,2.491-5.723,4.96-5.723s4.96,1.046,4.96,5.723Z" transform="translate(-329.286 -291.771)"/>
    </g>
  </g>
</svg>
